<mxfile host="65bd71144e">
    <diagram id="opK8L_7fd9JOHbTizbBW" name="Page-1">
        <mxGraphModel dx="448" dy="690" grid="1" gridSize="10" guides="1" tooltips="1" connect="1" arrows="1" fold="1" page="1" pageScale="1" pageWidth="850" pageHeight="1100" math="0" shadow="0">
            <root>
                <mxCell id="0"/>
                <mxCell id="1" parent="0"/>
                <mxCell id="4" style="html=1;entryX=0.5;entryY=0;entryDx=0;entryDy=0;endArrow=ERmany;endFill=0;startArrow=ERone;startFill=0;strokeColor=#FF3333;" parent="1" source="2" target="3" edge="1">
                    <mxGeometry relative="1" as="geometry"/>
                </mxCell>
                <mxCell id="2" value="Team" style="rounded=0;whiteSpace=wrap;html=1;fillColor=#FF3333;strokeColor=#FF3333;fontColor=#FFFFFF;" parent="1" vertex="1">
                    <mxGeometry x="365" y="120" width="120" height="60" as="geometry"/>
                </mxCell>
                <mxCell id="3" value="Board" style="rounded=0;whiteSpace=wrap;html=1;fillColor=#FF3333;strokeColor=#FF3333;fontColor=#FFFFFF;" parent="1" vertex="1">
                    <mxGeometry x="365" y="230" width="120" height="60" as="geometry"/>
                </mxCell>
                <mxCell id="10" style="edgeStyle=none;html=1;entryX=0.5;entryY=0;entryDx=0;entryDy=0;startArrow=ERone;startFill=0;endArrow=ERmany;endFill=0;strokeColor=#FF3333;" parent="1" source="5" target="9" edge="1">
                    <mxGeometry relative="1" as="geometry"/>
                </mxCell>
                <mxCell id="5" value="Pipeline" style="rounded=0;whiteSpace=wrap;html=1;fillColor=#FF3333;strokeColor=#FF3333;fontColor=#FFFFFF;" parent="1" vertex="1">
                    <mxGeometry x="365" y="340" width="120" height="60" as="geometry"/>
                </mxCell>
                <mxCell id="6" style="html=1;entryX=0.5;entryY=0;entryDx=0;entryDy=0;endArrow=ERmany;endFill=0;startArrow=ERone;startFill=0;strokeColor=#FF3333;" parent="1" edge="1">
                    <mxGeometry relative="1" as="geometry">
                        <mxPoint x="424.5" y="290" as="sourcePoint"/>
                        <mxPoint x="424.5" y="340" as="targetPoint"/>
                    </mxGeometry>
                </mxCell>
                <mxCell id="12" style="edgeStyle=none;html=1;entryX=1;entryY=0.5;entryDx=0;entryDy=0;startArrow=ERone;startFill=0;endArrow=ERone;endFill=0;strokeColor=#FF3333;" parent="1" source="9" target="11" edge="1">
                    <mxGeometry relative="1" as="geometry"/>
                </mxCell>
                <mxCell id="9" value="Script" style="rounded=0;whiteSpace=wrap;html=1;fillColor=#FF3333;strokeColor=#FF3333;fontColor=#FFFFFF;" parent="1" vertex="1">
                    <mxGeometry x="365" y="440" width="120" height="60" as="geometry"/>
                </mxCell>
                <mxCell id="11" value="Configuration" style="rounded=0;whiteSpace=wrap;html=1;fillColor=#FF3333;strokeColor=#FF3333;fontColor=#FFFFFF;" parent="1" vertex="1">
                    <mxGeometry x="190" y="440" width="120" height="60" as="geometry"/>
                </mxCell>
            </root>
        </mxGraphModel>
    </diagram>
</mxfile>
